<?xml version="1.0" encoding="UTF-8"?>
<svg version="1.1" viewBox="0 0 912 884" width="1280" height="1280" xmlns="http://www.w3.org/2000/svg">
<path transform="translate(0)" d="m0 0h912v884h-912z" fill="#FEFEFE"/>
<path transform="translate(322,165)" d="m0 0h280l26 1 19 3 15 4 18 8 16 9 12 9 12 11 10 11 10 15 8 16 7 19 4 20 1 9v308l-4 22-5 17-7 16-8 14-13 16-13 13-12 9-15 9-18 8-17 5-16 3h-320l-17-3-16-5-11-5-14-7-18-13-8-7-7-8-10-13-8-13-7-15-6-18-3-16-1-8-1-258v-36l1-20 5-25 6-18 8-16 12-17 11-12 11-10 13-9 18-10 16-6 21-5z" fill="#129BFD"/>
<path transform="translate(601,165)" d="m0 0 27 1 19 3 15 4 18 8 16 9 12 9 12 11 10 11 10 15 8 16 7 19 4 20 1 9v308l-4 22-5 17-7 16-8 14-13 16-13 13-12 9-15 9-18 8-17 5-16 3h-64v-2l12-5 12-8 8-8 9-13 5-11 4-14v-20l-4-16-6-12-8-10-10-9-15-9-14-5-5-1 3-3 17-7 12-8 11-11 7-10 6-13 4-16 1-7v-146l-3-17-6-14-9-12-8-8-13-8-21-7 3-2 18-6 11-6 12-11 10-15 6-16 1-7v-17l-3-15-8-16-6-8-8-8-14-10-11-6v-1z" fill="#025DA9"/>
<path transform="translate(471,308)" d="m0 0 83 1 19 5 12 6 9 7 8 8 9 14 5 14 2 13v146l-3 17-5 13-7 12-11 12-8 7-12 7-13 5-4 1-15 1-156-1-12-4-13-7-11-9-10-14-5-11-3-13-1-7-1-34v-95l1-23 4-17 9-17 9-11 11-10 14-8 15-5 14-2z" fill="#FEFEFE"/>
</svg>
